<?xml version="1.0" encoding="UTF-8"?>
<!DOCTYPE svg PUBLIC "-//W3C//DTD SVG 1.1//EN" "http://www.w3.org/Graphics/SVG/1.1/DTD/svg11.dtd">
<!-- Creator: CorelDRAW X6 -->
<svg xmlns="http://www.w3.org/2000/svg" xml:space="preserve" width="279.4mm" height="215.9mm" version="1.1" style="shape-rendering:geometricPrecision; text-rendering:geometricPrecision; image-rendering:optimizeQuality; fill-rule:evenodd; clip-rule:evenodd"
viewBox="0 0 27940 21590"
 xmlns:xlink="http://www.w3.org/1999/xlink">
 <defs>
  <style type="text/css">
   <![CDATA[
    .str0 {stroke:#373435;stroke-width:7.62}
    .fil7 {fill:none;fill-rule:nonzero}
    .fil0 {fill:#4B4B4D}
    .fil1 {fill:#606062}
    .fil5 {fill:#CD3033}
    .fil4 {fill:#DADBDC}
    .fil2 {fill:#ED3237}
    .fil3 {fill:#FEFEFE}
    .fil6 {fill:#373435;fill-rule:nonzero}
   ]]>
  </style>
 </defs>
 <g id="Capa_x0020_1">
  <metadata id="CorelCorpID_0Corel-Layer"/>
  <g id="_765133536">
   <g>
    <polygon class="fil0" points="10546,12418 18741,12418 19165,12843 19165,13267 10122,13267 10122,12843 "/>
    <polygon class="fil0" points="15991,11239 16452,12388 12835,12388 13296,11239 "/>
    <path class="fil0" d="M6961 11199l15366 0c185,0 337,-151 337,-337l0 -7141c0,-185 -151,-337 -337,-337l-15366 0c-185,0 -337,151 -337,337l0 7141c0,185 151,337 337,337zm169 -7319l0 6804 15028 0 0 -6804 -15028 0z"/>
    <g>
     <path class="fil1" d="M12888 5492l3503 0 0 3527 -3503 0 0 -3527zm319 1169l2866 0 0 1303 -2866 0 0 -1303z"/>
     <g>
      <path class="fil2" d="M12972 5125c222,0 444,0 667,0 -50,212 -101,424 -151,635 -50,212 -101,423 -152,635 -18,73 -228,132 -470,132 -242,0 -415,-59 -387,-132 82,-212 164,-424 246,-635 82,-212 164,-423 246,-635z"/>
      <path class="fil3" d="M13638 5125c223,0 445,0 668,0 -19,212 -38,424 -57,635 -19,212 -38,423 -57,635 -7,73 -208,132 -450,132 -242,0 -425,-59 -407,-132 51,-212 101,-423 152,-635 50,-212 101,-423 151,-635z"/>
      <path class="fil2" d="M14306 5125c222,0 444,0 667,0 13,212 25,424 38,635 13,212 25,423 38,635 4,73 -188,132 -430,132 -242,0 -433,-59 -426,-132 19,-212 38,-423 57,-635 19,-212 38,-423 57,-635z"/>
      <path class="fil3" d="M14973 5125c222,0 445,0 667,0 45,212 89,424 133,635 44,212 89,423 132,635 15,73 -169,132 -411,132 -242,0 -442,-59 -446,-132 -12,-212 -25,-423 -38,-635 -13,-212 -25,-423 -38,-635z"/>
      <path class="fil2" d="M15640 5125c222,0 445,0 667,0 76,212 152,424 228,635 76,212 152,423 227,635 26,73 -149,132 -391,132 -242,0 -450,-59 -466,-132 -44,-212 -88,-423 -132,-635 -44,-212 -89,-423 -133,-635z"/>
     </g>
     <path class="fil4" d="M14193 6405c-13,185 -224,335 -471,335 -247,0 -420,-150 -386,-335 285,0 571,0 857,0z"/>
     <path class="fil5" d="M15049 6400c8,185 -184,335 -432,335 -247,0 -437,-150 -424,-335 285,0 570,0 856,0z"/>
     <path class="fil5" d="M13336 6405c8,185 -185,335 -432,335 -247,0 -437,-150 -424,-335 285,0 570,0 856,0z"/>
     <path class="fil5" d="M16762 6395c8,185 -185,335 -432,335 -247,0 -437,-150 -424,-335 285,0 570,0 856,0z"/>
     <path class="fil4" d="M15907 6400c29,185 -148,335 -395,335 -248,0 -455,-150 -463,-335 286,0 572,0 859,0z"/>
    </g>
   </g>
   <path class="fil6" d="M7690 14979c21,0 31,9 31,28 8,55 31,101 69,140 39,39 89,58 151,58l539 0c64,0 117,-23 158,-68 41,-45 62,-98 62,-158 0,-60 -21,-112 -62,-155 -41,-43 -94,-65 -158,-65l-514 0c-56,0 -109,-11 -158,-32 -49,-22 -92,-51 -128,-87 -37,-37 -65,-80 -86,-130 -21,-50 -31,-103 -31,-159 0,-56 10,-109 31,-158 21,-49 49,-92 86,-128 37,-37 79,-66 128,-87 49,-22 102,-32 158,-32l502 0c47,0 95,9 143,28 48,19 91,45 130,78 39,33 70,72 95,117 24,45 37,94 37,147 0,19 -10,28 -31,28l-121 0c-19,0 -29,-9 -31,-28 -8,-49 -29,-90 -64,-124 -35,-34 -80,-51 -137,-51l-533 0c-60,0 -109,20 -147,59 -38,40 -56,87 -56,144 0,55 18,103 55,144 37,41 87,62 149,62l521 0c58,0 113,11 166,32 52,22 97,52 135,90 39,39 70,84 92,135 23,52 34,108 34,168 0,60 -11,116 -34,168 -23,52 -53,96 -92,134 -39,38 -84,68 -135,90 -52,23 -107,34 -166,34l-532 0c-51,0 -102,-10 -151,-30 -50,-20 -95,-47 -135,-82 -41,-35 -74,-76 -99,-124 -25,-48 -38,-99 -38,-154 0,-21 10,-31 31,-31l138 0z"/>
   <path id="1" class="fil6" d="M9468 14222c0,-13 7,-20 20,-20l161 0c13,0 23,5 28,14l500 480 500 -480c9,-9 20,-14 31,-14l150 0c13,0 20,5 20,14 0,13 -8,27 -23,42l-624 604c-4,4 -8,8 -14,11 -11,8 -24,11 -40,11 -15,0 -28,-4 -40,-11 -6,-4 -10,-8 -14,-11l-468 -449 0 937c0,13 -5,24 -14,34 -9,9 -21,14 -34,14l-90 0c-13,0 -24,-5 -34,-14 -9,-9 -14,-21 -14,-34l0 -1129zm1403 1129c0,13 -5,24 -14,34 -9,9 -21,14 -34,14l-93 0c-13,0 -24,-5 -34,-14 -9,-9 -14,-21 -14,-34l0 -722c0,-8 3,-16 8,-27 6,-10 12,-20 20,-30l127 -127c9,-9 18,-14 25,-14 6,0 8,5 8,14l0 906z"/>
   <path id="2" class="fil6" d="M11793 14251c6,-13 16,-24 30,-34 14,-9 28,-14 41,-14l102 0c13,0 27,5 41,14 14,9 25,21 32,34l584 1101c4,11 6,19 6,23 0,17 -9,25 -28,25l-130 0c-21,0 -38,-11 -51,-34l-133 -248 -550 0c-19,0 -28,-8 -28,-25 0,-4 2,-11 6,-23l45 -87c13,-23 30,-34 51,-34l387 0 -285 -556 -497 974c-4,9 -11,17 -21,24 -10,7 -20,10 -30,10l-121 0c-19,0 -28,-8 -28,-25 0,-4 2,-11 6,-23l573 -1101z"/>
   <path id="3" class="fil6" d="M13712 14203c53,0 101,9 145,28 44,19 82,45 114,78 32,33 57,71 76,114 19,43 28,90 28,141 0,90 -26,167 -79,230 -53,63 -119,104 -200,123l322 435c6,9 8,19 8,28 0,13 -8,20 -23,20l-155 0c-6,0 -12,-2 -18,-6 -7,-4 -12,-8 -16,-14l-336 -452 -214 0c-13,0 -24,-5 -34,-14 -9,-9 -14,-21 -14,-34l0 -73c0,-13 5,-24 14,-34 9,-9 21,-14 34,-14l339 0c56,0 103,-18 138,-54 36,-36 54,-82 54,-138 0,-53 -19,-97 -56,-133 -38,-36 -83,-54 -135,-54l-536 0 0 971c0,13 -5,24 -14,34 -9,9 -21,14 -34,14l-102 0c-13,0 -24,-5 -34,-14 -9,-9 -14,-21 -14,-34l0 -1101c0,-13 5,-24 14,-34 9,-9 21,-14 34,-14l694 0z"/>
   <path id="4" class="fil6" d="M14313 14251c0,-13 5,-24 14,-34 9,-9 21,-14 34,-14l1120 0c15,0 27,5 35,14 8,9 13,21 13,34l0 82c0,13 -4,24 -13,34 -8,9 -20,14 -35,14l-1120 0c-13,0 -24,-5 -34,-14 -9,-9 -14,-21 -14,-34l0 -82zm505 319c0,-32 16,-48 48,-48l107 0c32,0 48,16 48,48l0 782c0,13 -4,24 -13,34 -8,9 -20,14 -35,14l-107 0c-15,0 -27,-5 -35,-14 -8,-9 -13,-21 -13,-34l0 -782z"/>
   <path id="5" class="fil6" d="M16043 14979c21,0 31,9 31,28 8,55 31,101 69,140 39,39 89,58 151,58l539 0c64,0 117,-23 158,-68 41,-45 62,-98 62,-158 0,-60 -21,-112 -62,-155 -41,-43 -94,-65 -158,-65l-514 0c-56,0 -109,-11 -158,-32 -49,-22 -92,-51 -128,-87 -37,-37 -65,-80 -86,-130 -21,-50 -31,-103 -31,-159 0,-56 10,-109 31,-158 21,-49 49,-92 86,-128 37,-37 79,-66 128,-87 49,-22 102,-32 158,-32l502 0c47,0 95,9 143,28 48,19 91,45 130,78 39,33 70,72 95,117 24,45 37,94 37,147 0,19 -10,28 -31,28l-121 0c-19,0 -29,-9 -31,-28 -8,-49 -29,-90 -64,-124 -35,-34 -80,-51 -137,-51l-533 0c-60,0 -109,20 -147,59 -38,40 -56,87 -56,144 0,55 18,103 55,144 37,41 87,62 149,62l521 0c58,0 113,11 166,32 52,22 97,52 135,90 39,39 70,84 92,135 23,52 34,108 34,168 0,60 -11,116 -34,168 -23,52 -53,96 -92,134 -39,38 -84,68 -135,90 -52,23 -107,34 -166,34l-532 0c-51,0 -102,-10 -151,-30 -50,-20 -95,-47 -135,-82 -41,-35 -74,-76 -99,-124 -25,-48 -38,-99 -38,-154 0,-21 10,-31 31,-31l138 0z"/>
   <path id="6" class="fil6" d="M18140 14251c6,-13 16,-24 30,-34 14,-9 28,-14 41,-14l102 0c13,0 27,5 41,14 14,9 25,21 32,34l584 1101c4,11 6,19 6,23 0,17 -9,25 -28,25l-130 0c-21,0 -38,-11 -51,-34l-133 -248 -550 0c-19,0 -28,-8 -28,-25 0,-4 2,-11 6,-23l45 -87c13,-23 30,-34 51,-34l387 0 -285 -556 -497 974c-4,9 -11,17 -21,24 -10,7 -20,10 -30,10l-121 0c-19,0 -28,-8 -28,-25 0,-4 2,-11 6,-23l573 -1101z"/>
   <path id="7" class="fil6" d="M19317 14251c0,-13 5,-24 14,-34 9,-9 21,-14 34,-14l102 0c13,0 24,5 34,14 9,9 14,21 14,34l0 971 793 0c13,0 24,5 34,14 9,9 14,21 14,34l0 82c0,13 -5,24 -14,34 -9,9 -21,14 -34,14l-943 0c-13,0 -24,-5 -34,-14 -9,-9 -14,-21 -14,-34l0 -1101z"/>
   <path id="8" class="fil6" d="M20864 15222l855 0c13,0 24,5 34,14 9,9 14,21 14,34l0 82c0,13 -5,24 -14,34 -9,9 -21,14 -34,14l-997 0c-13,0 -24,-5 -33,-14 -9,-9 -14,-21 -14,-34l0 -1101c0,-13 5,-24 14,-34 9,-9 20,-14 33,-14l985 0c13,0 24,5 34,14 9,9 14,21 14,34l0 82c0,13 -5,24 -14,34 -9,9 -21,14 -34,14l-844 0 0 841zm150 -485c0,-13 5,-24 14,-34 9,-9 21,-14 34,-14l579 0c13,0 24,5 34,14 9,9 14,21 14,34l0 82c0,15 -5,27 -14,35 -9,8 -21,13 -34,13l-579 0c-13,0 -24,-4 -34,-13 -9,-8 -14,-20 -14,-35l0 -82z"/>
   <path id="9" class="fil7 str0" d="M7690 14979c21,0 31,9 31,28 8,55 31,101 69,140 39,39 89,58 151,58l539 0c64,0 117,-23 158,-68 41,-45 62,-98 62,-158 0,-60 -21,-112 -62,-155 -41,-43 -94,-65 -158,-65l-514 0c-56,0 -109,-11 -158,-32 -49,-22 -92,-51 -128,-87 -37,-37 -65,-80 -86,-130 -21,-50 -31,-103 -31,-159 0,-56 10,-109 31,-158 21,-49 49,-92 86,-128 37,-37 79,-66 128,-87 49,-22 102,-32 158,-32l502 0c47,0 95,9 143,28 48,19 91,45 130,78 39,33 70,72 95,117 24,45 37,94 37,147 0,19 -10,28 -31,28l-121 0c-19,0 -29,-9 -31,-28 -8,-49 -29,-90 -64,-124 -35,-34 -80,-51 -137,-51l-533 0c-60,0 -109,20 -147,59 -38,40 -56,87 -56,144 0,55 18,103 55,144 37,41 87,62 149,62l521 0c58,0 113,11 166,32 52,22 97,52 135,90 39,39 70,84 92,135 23,52 34,108 34,168 0,60 -11,116 -34,168 -23,52 -53,96 -92,134 -39,38 -84,68 -135,90 -52,23 -107,34 -166,34l-532 0c-51,0 -102,-10 -151,-30 -50,-20 -95,-47 -135,-82 -41,-35 -74,-76 -99,-124 -25,-48 -38,-99 -38,-154 0,-21 10,-31 31,-31l138 0z"/>
   <path id="10" class="fil7 str0" d="M9468 14222c0,-13 7,-20 20,-20l161 0c13,0 23,5 28,14l500 480 500 -480c9,-9 20,-14 31,-14l150 0c13,0 20,5 20,14 0,13 -8,27 -23,42l-624 604c-4,4 -8,8 -14,11 -11,8 -24,11 -40,11 -15,0 -28,-4 -40,-11 -6,-4 -10,-8 -14,-11l-468 -449 0 937c0,13 -5,24 -14,34 -9,9 -21,14 -34,14l-90 0c-13,0 -24,-5 -34,-14 -9,-9 -14,-21 -14,-34l0 -1129zm1403 1129c0,13 -5,24 -14,34 -9,9 -21,14 -34,14l-93 0c-13,0 -24,-5 -34,-14 -9,-9 -14,-21 -14,-34l0 -722c0,-8 3,-16 8,-27 6,-10 12,-20 20,-30l127 -127c9,-9 18,-14 25,-14 6,0 8,5 8,14l0 906z"/>
   <path id="11" class="fil7 str0" d="M11793 14251c6,-13 16,-24 30,-34 14,-9 28,-14 41,-14l102 0c13,0 27,5 41,14 14,9 25,21 32,34l584 1101c4,11 6,19 6,23 0,17 -9,25 -28,25l-130 0c-21,0 -38,-11 -51,-34l-133 -248 -550 0c-19,0 -28,-8 -28,-25 0,-4 2,-11 6,-23l45 -87c13,-23 30,-34 51,-34l387 0 -285 -556 -497 974c-4,9 -11,17 -21,24 -10,7 -20,10 -30,10l-121 0c-19,0 -28,-8 -28,-25 0,-4 2,-11 6,-23l573 -1101z"/>
   <path id="12" class="fil7 str0" d="M13712 14203c53,0 101,9 145,28 44,19 82,45 114,78 32,33 57,71 76,114 19,43 28,90 28,141 0,90 -26,167 -79,230 -53,63 -119,104 -200,123l322 435c6,9 8,19 8,28 0,13 -8,20 -23,20l-155 0c-6,0 -12,-2 -18,-6 -7,-4 -12,-8 -16,-14l-336 -452 -214 0c-13,0 -24,-5 -34,-14 -9,-9 -14,-21 -14,-34l0 -73c0,-13 5,-24 14,-34 9,-9 21,-14 34,-14l339 0c56,0 103,-18 138,-54 36,-36 54,-82 54,-138 0,-53 -19,-97 -56,-133 -38,-36 -83,-54 -135,-54l-536 0 0 971c0,13 -5,24 -14,34 -9,9 -21,14 -34,14l-102 0c-13,0 -24,-5 -34,-14 -9,-9 -14,-21 -14,-34l0 -1101c0,-13 5,-24 14,-34 9,-9 21,-14 34,-14l694 0z"/>
   <path id="13" class="fil7 str0" d="M14313 14251c0,-13 5,-24 14,-34 9,-9 21,-14 34,-14l1120 0c15,0 27,5 35,14 8,9 13,21 13,34l0 82c0,13 -4,24 -13,34 -8,9 -20,14 -35,14l-1120 0c-13,0 -24,-5 -34,-14 -9,-9 -14,-21 -14,-34l0 -82zm505 319c0,-32 16,-48 48,-48l107 0c32,0 48,16 48,48l0 782c0,13 -4,24 -13,34 -8,9 -20,14 -35,14l-107 0c-15,0 -27,-5 -35,-14 -8,-9 -13,-21 -13,-34l0 -782z"/>
   <path id="14" class="fil7 str0" d="M16043 14979c21,0 31,9 31,28 8,55 31,101 69,140 39,39 89,58 151,58l539 0c64,0 117,-23 158,-68 41,-45 62,-98 62,-158 0,-60 -21,-112 -62,-155 -41,-43 -94,-65 -158,-65l-514 0c-56,0 -109,-11 -158,-32 -49,-22 -92,-51 -128,-87 -37,-37 -65,-80 -86,-130 -21,-50 -31,-103 -31,-159 0,-56 10,-109 31,-158 21,-49 49,-92 86,-128 37,-37 79,-66 128,-87 49,-22 102,-32 158,-32l502 0c47,0 95,9 143,28 48,19 91,45 130,78 39,33 70,72 95,117 24,45 37,94 37,147 0,19 -10,28 -31,28l-121 0c-19,0 -29,-9 -31,-28 -8,-49 -29,-90 -64,-124 -35,-34 -80,-51 -137,-51l-533 0c-60,0 -109,20 -147,59 -38,40 -56,87 -56,144 0,55 18,103 55,144 37,41 87,62 149,62l521 0c58,0 113,11 166,32 52,22 97,52 135,90 39,39 70,84 92,135 23,52 34,108 34,168 0,60 -11,116 -34,168 -23,52 -53,96 -92,134 -39,38 -84,68 -135,90 -52,23 -107,34 -166,34l-532 0c-51,0 -102,-10 -151,-30 -50,-20 -95,-47 -135,-82 -41,-35 -74,-76 -99,-124 -25,-48 -38,-99 -38,-154 0,-21 10,-31 31,-31l138 0z"/>
   <path id="15" class="fil7 str0" d="M18140 14251c6,-13 16,-24 30,-34 14,-9 28,-14 41,-14l102 0c13,0 27,5 41,14 14,9 25,21 32,34l584 1101c4,11 6,19 6,23 0,17 -9,25 -28,25l-130 0c-21,0 -38,-11 -51,-34l-133 -248 -550 0c-19,0 -28,-8 -28,-25 0,-4 2,-11 6,-23l45 -87c13,-23 30,-34 51,-34l387 0 -285 -556 -497 974c-4,9 -11,17 -21,24 -10,7 -20,10 -30,10l-121 0c-19,0 -28,-8 -28,-25 0,-4 2,-11 6,-23l573 -1101z"/>
   <path id="16" class="fil7 str0" d="M19317 14251c0,-13 5,-24 14,-34 9,-9 21,-14 34,-14l102 0c13,0 24,5 34,14 9,9 14,21 14,34l0 971 793 0c13,0 24,5 34,14 9,9 14,21 14,34l0 82c0,13 -5,24 -14,34 -9,9 -21,14 -34,14l-943 0c-13,0 -24,-5 -34,-14 -9,-9 -14,-21 -14,-34l0 -1101z"/>
   <path id="17" class="fil7 str0" d="M20864 15222l855 0c13,0 24,5 34,14 9,9 14,21 14,34l0 82c0,13 -5,24 -14,34 -9,9 -21,14 -34,14l-997 0c-13,0 -24,-5 -33,-14 -9,-9 -14,-21 -14,-34l0 -1101c0,-13 5,-24 14,-34 9,-9 20,-14 33,-14l985 0c13,0 24,5 34,14 9,9 14,21 14,34l0 82c0,13 -5,24 -14,34 -9,9 -21,14 -34,14l-844 0 0 841zm150 -485c0,-13 5,-24 14,-34 9,-9 21,-14 34,-14l579 0c13,0 24,5 34,14 9,9 14,21 14,34l0 82c0,15 -5,27 -14,35 -9,8 -21,13 -34,13l-579 0c-13,0 -24,-4 -34,-13 -9,-8 -14,-20 -14,-35l0 -82z"/>
   <path class="fil6" d="M9837 16182l301 0c4,0 7,2 11,5 3,3 5,7 5,11l0 27c0,4 -2,7 -5,11 -3,3 -7,5 -11,5l-351 0c-4,0 -7,-2 -11,-5 -3,-3 -5,-7 -5,-11l0 -406c0,-5 2,-8 5,-11 3,-3 7,-5 11,-5l346 0c5,0 8,2 11,5 3,3 5,7 5,11l0 27c0,4 -2,7 -5,11 -3,3 -7,5 -11,5l-296 0 0 320zm47 -183c0,-5 1,-8 4,-11 3,-3 6,-4 11,-4l213 0c4,0 7,1 11,4 3,3 5,6 5,11l0 26c0,5 -2,8 -5,11 -3,3 -7,4 -11,4l-213 0c-5,0 -8,-1 -11,-4 -3,-3 -4,-6 -4,-11l0 -26z"/>
   <path id="1" class="fil6" d="M10409 15896c2,-4 5,-7 9,-10 4,-3 8,-4 12,-4l30 0c4,0 8,1 12,4 4,3 7,6 10,10l175 330c1,3 2,6 2,7 0,5 -3,8 -8,8l-39 0c-6,0 -11,-3 -15,-10l-40 -75 -165 0c-6,0 -8,-3 -8,-8 0,-1 1,-3 2,-7l14 -26c4,-7 9,-10 15,-10l116 0 -86 -167 -149 292c-1,3 -3,5 -6,7 -3,2 -6,3 -9,3l-36 0c-6,0 -8,-3 -8,-8 0,-1 1,-3 2,-7l172 -330z"/>
   <path id="2" class="fil6" d="M10753 16148c0,-4 1,-7 4,-10 3,-3 6,-4 10,-4l28 0c8,0 12,4 14,12 3,12 9,22 18,30 9,8 20,12 32,12l146 0c14,0 26,-5 36,-16 10,-10 14,-23 14,-37 0,-14 -5,-26 -14,-36 -10,-10 -21,-15 -36,-15l-140 0c-14,0 -27,-3 -39,-8 -12,-5 -23,-12 -32,-21 -9,-9 -17,-20 -22,-32 -5,-12 -8,-25 -8,-39 0,-14 3,-27 8,-39 5,-12 13,-23 22,-32 9,-9 20,-17 32,-22 12,-5 25,-8 39,-8l138 0c12,0 24,2 36,7 12,5 22,11 30,19 9,8 16,17 22,28 6,11 10,22 11,35 0,10 -5,14 -14,14l-27 0c-8,0 -13,-4 -14,-12 -2,-11 -8,-20 -16,-27 -8,-7 -18,-11 -30,-11l-137 0c-13,0 -24,5 -33,14 -9,9 -14,20 -14,33 0,13 5,24 14,34 9,9 20,14 33,14l140 0c15,0 29,3 41,8 13,5 24,13 34,22 10,9 17,20 23,33 6,13 8,27 8,41 0,15 -3,29 -8,41 -6,13 -13,24 -23,34 -10,10 -21,17 -34,23 -13,6 -27,8 -41,8l-146 0c-14,0 -26,-2 -39,-7 -12,-5 -23,-11 -32,-20 -9,-8 -17,-18 -23,-30 -6,-11 -10,-23 -11,-36z"/>
   <path id="3" class="fil6" d="M11245 15896c0,-4 1,-7 4,-10 3,-3 6,-4 10,-4l32 0c4,0 7,1 10,4 3,3 4,6 4,10l0 330c0,4 -1,7 -4,10 -3,3 -6,4 -10,4l-32 0c-4,0 -7,-1 -10,-4 -3,-3 -4,-6 -4,-10l0 -330z"/>
   <path id="4" class="fil6" d="M11511 16187l257 0c4,0 7,1 10,4 3,3 4,6 4,10l0 25c0,4 -1,7 -4,10 -3,3 -6,4 -10,4l-299 0c-4,0 -7,-1 -10,-4 -3,-3 -4,-6 -4,-10l0 -330c0,-4 1,-7 4,-10 3,-3 6,-4 10,-4l296 0c4,0 7,1 10,4 3,3 4,6 4,10l0 25c0,4 -1,7 -4,10 -3,3 -6,4 -10,4l-253 0 0 252zm45 -146c0,-4 1,-7 4,-10 3,-3 6,-4 10,-4l174 0c4,0 7,1 10,4 3,3 4,6 4,10l0 25c0,5 -1,8 -4,11 -3,3 -6,4 -10,4l-174 0c-4,0 -7,-1 -10,-4 -3,-3 -4,-6 -4,-11l0 -25z"/>
   <path id="5" class="fil6" d="M12120 15882c16,0 30,3 44,8 13,6 25,13 34,23 10,10 17,21 23,34 6,13 8,27 8,42 0,27 -8,50 -24,69 -16,19 -36,31 -60,37l97 130c2,3 3,6 3,8 0,4 -2,6 -7,6l-47 0c-2,0 -4,-1 -6,-2 -2,-1 -4,-3 -5,-4l-101 -135 -64 0c-4,0 -7,-1 -10,-4 -3,-3 -4,-6 -4,-10l0 -22c0,-4 1,-7 4,-10 3,-3 6,-4 10,-4l102 0c17,0 31,-5 41,-16 11,-11 16,-25 16,-41 0,-16 -6,-29 -17,-40 -11,-11 -25,-16 -41,-16l-161 0 0 291c0,4 -1,7 -4,10 -3,3 -6,4 -10,4l-30 0c-4,0 -7,-1 -10,-4 -3,-3 -4,-6 -4,-10l0 -330c0,-4 1,-7 4,-10 3,-3 6,-4 10,-4l208 0z"/>
   <path id="6" class="fil6" d="M12383 16173c0,-10 5,-15 15,-15l51 0c10,0 15,5 15,15l0 51c0,3 0,6 -1,8 -1,3 -2,5 -4,8l-33 71c-2,4 -5,7 -8,10 -4,3 -8,4 -13,4l-16 0c-2,0 -3,-1 -3,-3l36 -82 -24 0c-5,0 -8,-2 -11,-5 -3,-3 -4,-7 -4,-11l0 -52z"/>
   <path id="7" class="fil6" d="M12955 15820c0,-5 2,-8 5,-11 3,-3 7,-5 11,-5l343 0c5,0 8,2 11,5 3,3 4,7 4,11l0 26c0,5 -1,8 -4,11 -3,3 -6,5 -11,5l-292 0 0 363c0,4 -2,7 -5,11 -3,3 -7,5 -11,5l-36 0c-4,0 -7,-2 -11,-5 -3,-3 -5,-7 -5,-11l0 -406zm113 201c0,-5 2,-8 5,-11 3,-3 7,-4 11,-4l202 0c5,0 8,1 11,4 3,3 5,6 5,11l0 25c0,5 -2,8 -5,11 -3,3 -7,5 -11,5l-202 0c-5,0 -8,-2 -11,-5 -3,-3 -5,-7 -5,-11l0 -25z"/>
   <path id="8" class="fil6" d="M13508 15896c2,-4 5,-7 9,-10 4,-3 8,-4 12,-4l30 0c4,0 8,1 12,4 4,3 7,6 10,10l175 330c1,3 2,6 2,7 0,5 -3,8 -8,8l-39 0c-6,0 -11,-3 -15,-10l-40 -75 -165 0c-6,0 -8,-3 -8,-8 0,-1 1,-3 2,-7l14 -26c4,-7 9,-10 15,-10l116 0 -86 -167 -149 292c-1,3 -3,5 -6,7 -3,2 -6,3 -9,3l-36 0c-6,0 -8,-3 -8,-8 0,-1 1,-3 2,-7l172 -330z"/>
   <path id="9" class="fil6" d="M13851 16148c0,-4 1,-7 4,-10 3,-3 6,-4 10,-4l28 0c8,0 12,4 14,12 3,12 9,22 18,30 9,8 20,12 32,12l146 0c14,0 26,-5 36,-16 10,-10 14,-23 14,-37 0,-14 -5,-26 -14,-36 -10,-10 -21,-15 -36,-15l-140 0c-14,0 -27,-3 -39,-8 -12,-5 -23,-12 -32,-21 -9,-9 -17,-20 -22,-32 -5,-12 -8,-25 -8,-39 0,-14 3,-27 8,-39 5,-12 13,-23 22,-32 9,-9 20,-17 32,-22 12,-5 25,-8 39,-8l138 0c12,0 24,2 36,7 12,5 22,11 30,19 9,8 16,17 22,28 6,11 10,22 11,35 0,10 -5,14 -14,14l-27 0c-8,0 -13,-4 -14,-12 -2,-11 -8,-20 -16,-27 -8,-7 -18,-11 -30,-11l-137 0c-13,0 -24,5 -33,14 -9,9 -14,20 -14,33 0,13 5,24 14,34 9,9 20,14 33,14l140 0c15,0 29,3 41,8 13,5 24,13 34,22 10,9 17,20 23,33 6,13 8,27 8,41 0,15 -3,29 -8,41 -6,13 -13,24 -23,34 -10,10 -21,17 -34,23 -13,6 -27,8 -41,8l-146 0c-14,0 -26,-2 -39,-7 -12,-5 -23,-11 -32,-20 -9,-8 -17,-18 -23,-30 -6,-11 -10,-23 -11,-36z"/>
   <path id="10" class="fil6" d="M14289 15896c0,-4 1,-7 4,-10 3,-3 6,-4 10,-4l336 0c5,0 8,1 11,4 3,3 4,6 4,10l0 25c0,4 -1,7 -4,10 -3,3 -6,4 -11,4l-336 0c-4,0 -7,-1 -10,-4 -3,-3 -4,-6 -4,-10l0 -25zm152 96c0,-10 5,-14 14,-14l32 0c10,0 14,5 14,14l0 235c0,4 -1,7 -4,10 -3,3 -6,4 -11,4l-32 0c-5,0 -8,-1 -11,-4 -3,-3 -4,-6 -4,-10l0 -235z"/>
   <path id="11" class="fil6" d="M14802 16187l257 0c4,0 7,1 10,4 3,3 4,6 4,10l0 25c0,4 -1,7 -4,10 -3,3 -6,4 -10,4l-299 0c-4,0 -7,-1 -10,-4 -3,-3 -4,-6 -4,-10l0 -330c0,-4 1,-7 4,-10 3,-3 6,-4 10,-4l296 0c4,0 7,1 10,4 3,3 4,6 4,10l0 25c0,4 -1,7 -4,10 -3,3 -6,4 -10,4l-253 0 0 252zm45 -146c0,-4 1,-7 4,-10 3,-3 6,-4 10,-4l174 0c4,0 7,1 10,4 3,3 4,6 4,10l0 25c0,5 -1,8 -4,11 -3,3 -6,4 -10,4l-174 0c-4,0 -7,-1 -10,-4 -3,-3 -4,-6 -4,-11l0 -25z"/>
   <path id="12" class="fil6" d="M15411 15882c16,0 30,3 44,8 13,6 25,13 34,23 10,10 17,21 23,34 6,13 8,27 8,42 0,27 -8,50 -24,69 -16,19 -36,31 -60,37l97 130c2,3 3,6 3,8 0,4 -2,6 -7,6l-47 0c-2,0 -4,-1 -6,-2 -2,-1 -4,-3 -5,-4l-101 -135 -64 0c-4,0 -7,-1 -10,-4 -3,-3 -4,-6 -4,-10l0 -22c0,-4 1,-7 4,-10 3,-3 6,-4 10,-4l102 0c17,0 31,-5 41,-16 11,-11 16,-25 16,-41 0,-16 -6,-29 -17,-40 -11,-11 -25,-16 -41,-16l-161 0 0 291c0,4 -1,7 -4,10 -3,3 -6,4 -10,4l-30 0c-4,0 -7,-1 -10,-4 -3,-3 -4,-6 -4,-10l0 -330c0,-4 1,-7 4,-10 3,-3 6,-4 10,-4l208 0z"/>
   <path id="13" class="fil6" d="M15674 16173c0,-10 5,-15 15,-15l51 0c10,0 15,5 15,15l0 51c0,3 0,6 -1,8 -1,3 -2,5 -4,8l-33 71c-2,4 -5,7 -8,10 -4,3 -8,4 -13,4l-16 0c-2,0 -3,-1 -3,-3l36 -82 -24 0c-5,0 -8,-2 -11,-5 -3,-3 -4,-7 -4,-11l0 -52z"/>
   <path id="14" class="fil6" d="M16281 16115c6,0 9,3 9,8 2,16 9,30 21,42 12,12 27,17 45,17l162 0c19,0 35,-7 47,-20 12,-14 19,-29 19,-47 0,-18 -6,-34 -19,-47 -12,-13 -28,-19 -47,-19l-154 0c-17,0 -33,-3 -47,-10 -15,-6 -28,-15 -39,-26 -11,-11 -20,-24 -26,-39 -6,-15 -9,-31 -9,-48 0,-17 3,-33 9,-47 6,-15 15,-28 26,-39 11,-11 24,-20 39,-26 15,-6 30,-10 47,-10l151 0c14,0 28,3 43,8 14,6 27,13 39,23 12,10 21,22 28,35 7,14 11,28 11,44 0,6 -3,8 -9,8l-36 0c-6,0 -9,-3 -9,-8 -2,-15 -9,-27 -19,-37 -10,-10 -24,-15 -41,-15l-160 0c-18,0 -33,6 -44,18 -11,12 -17,26 -17,43 0,16 6,31 17,43 11,12 26,19 45,19l156 0c18,0 34,3 50,10 16,6 29,16 41,27 12,12 21,25 28,41 7,16 10,32 10,50 0,18 -3,35 -10,50 -7,16 -16,29 -28,40 -12,11 -25,20 -41,27 -16,7 -32,10 -50,10l-159 0c-15,0 -30,-3 -45,-9 -15,-6 -29,-14 -41,-25 -12,-10 -22,-23 -30,-37 -8,-14 -11,-30 -11,-46 0,-6 3,-9 9,-9l41 0z"/>
   <path id="15" class="fil6" d="M16815 15888c0,-4 2,-6 6,-6l48 0c4,0 7,1 8,4l150 144 150 -144c3,-3 6,-4 9,-4l45 0c4,0 6,1 6,4 0,4 -2,8 -7,13l-187 181c-1,1 -3,2 -4,3 -3,2 -7,3 -12,3 -5,0 -8,-1 -12,-3 -2,-1 -3,-2 -4,-3l-141 -135 0 281c0,4 -1,7 -4,10 -3,3 -6,4 -10,4l-27 0c-4,0 -7,-1 -10,-4 -3,-3 -4,-6 -4,-10l0 -339zm421 339c0,4 -1,7 -4,10 -3,3 -6,4 -10,4l-28 0c-4,0 -7,-1 -10,-4 -3,-3 -4,-6 -4,-10l0 -217c0,-2 1,-5 3,-8 2,-3 4,-6 6,-9l38 -38c3,-3 5,-4 8,-4 2,0 3,1 3,4l0 272z"/>
   <path id="16" class="fil6" d="M17512 15896c2,-4 5,-7 9,-10 4,-3 8,-4 12,-4l30 0c4,0 8,1 12,4 4,3 7,6 10,10l175 330c1,3 2,6 2,7 0,5 -3,8 -8,8l-39 0c-6,0 -11,-3 -15,-10l-40 -75 -165 0c-6,0 -8,-3 -8,-8 0,-1 1,-3 2,-7l14 -26c4,-7 9,-10 15,-10l116 0 -86 -167 -149 292c-1,3 -3,5 -6,7 -3,2 -6,3 -9,3l-36 0c-6,0 -8,-3 -8,-8 0,-1 1,-3 2,-7l172 -330z"/>
   <path id="17" class="fil6" d="M18088 15882c16,0 30,3 44,8 13,6 25,13 34,23 10,10 17,21 23,34 6,13 8,27 8,42 0,27 -8,50 -24,69 -16,19 -36,31 -60,37l97 130c2,3 3,6 3,8 0,4 -2,6 -7,6l-47 0c-2,0 -4,-1 -6,-2 -2,-1 -4,-3 -5,-4l-101 -135 -64 0c-4,0 -7,-1 -10,-4 -3,-3 -4,-6 -4,-10l0 -22c0,-4 1,-7 4,-10 3,-3 6,-4 10,-4l102 0c17,0 31,-5 41,-16 11,-11 16,-25 16,-41 0,-16 -6,-29 -17,-40 -11,-11 -25,-16 -41,-16l-161 0 0 291c0,4 -1,7 -4,10 -3,3 -6,4 -10,4l-30 0c-4,0 -7,-1 -10,-4 -3,-3 -4,-6 -4,-10l0 -330c0,-4 1,-7 4,-10 3,-3 6,-4 10,-4l208 0z"/>
   <path id="18" class="fil6" d="M18269 15896c0,-4 1,-7 4,-10 3,-3 6,-4 10,-4l336 0c5,0 8,1 11,4 3,3 4,6 4,10l0 25c0,4 -1,7 -4,10 -3,3 -6,4 -11,4l-336 0c-4,0 -7,-1 -10,-4 -3,-3 -4,-6 -4,-10l0 -25zm152 96c0,-10 5,-14 14,-14l32 0c10,0 14,5 14,14l0 235c0,4 -1,7 -4,10 -3,3 -6,4 -11,4l-32 0c-5,0 -8,-1 -11,-4 -3,-3 -4,-6 -4,-10l0 -235z"/>
   <path id="19" class="fil6" d="M18782 16187l257 0c4,0 7,1 10,4 3,3 4,6 4,10l0 25c0,4 -1,7 -4,10 -3,3 -6,4 -10,4l-299 0c-4,0 -7,-1 -10,-4 -3,-3 -4,-6 -4,-10l0 -330c0,-4 1,-7 4,-10 3,-3 6,-4 10,-4l296 0c4,0 7,1 10,4 3,3 4,6 4,10l0 25c0,4 -1,7 -4,10 -3,3 -6,4 -10,4l-253 0 0 252zm45 -146c0,-4 1,-7 4,-10 3,-3 6,-4 10,-4l174 0c4,0 7,1 10,4 3,3 4,6 4,10l0 25c0,5 -1,8 -4,11 -3,3 -6,4 -10,4l-174 0c-4,0 -7,-1 -10,-4 -3,-3 -4,-6 -4,-11l0 -25z"/>
   <path id="20" class="fil6" d="M19390 15882c16,0 30,3 44,8 13,6 25,13 34,23 10,10 17,21 23,34 6,13 8,27 8,42 0,27 -8,50 -24,69 -16,19 -36,31 -60,37l97 130c2,3 3,6 3,8 0,4 -2,6 -7,6l-47 0c-2,0 -4,-1 -6,-2 -2,-1 -4,-3 -5,-4l-101 -135 -64 0c-4,0 -7,-1 -10,-4 -3,-3 -4,-6 -4,-10l0 -22c0,-4 1,-7 4,-10 3,-3 6,-4 10,-4l102 0c17,0 31,-5 41,-16 11,-11 16,-25 16,-41 0,-16 -6,-29 -17,-40 -11,-11 -25,-16 -41,-16l-161 0 0 291c0,4 -1,7 -4,10 -3,3 -6,4 -10,4l-30 0c-4,0 -7,-1 -10,-4 -3,-3 -4,-6 -4,-10l0 -330c0,-4 1,-7 4,-10 3,-3 6,-4 10,-4l208 0z"/>
   <path id="21" class="fil7 str0" d="M9837 16182l301 0c4,0 7,2 11,5 3,3 5,7 5,11l0 27c0,4 -2,7 -5,11 -3,3 -7,5 -11,5l-351 0c-4,0 -7,-2 -11,-5 -3,-3 -5,-7 -5,-11l0 -406c0,-5 2,-8 5,-11 3,-3 7,-5 11,-5l346 0c5,0 8,2 11,5 3,3 5,7 5,11l0 27c0,4 -2,7 -5,11 -3,3 -7,5 -11,5l-296 0 0 320zm47 -183c0,-5 1,-8 4,-11 3,-3 6,-4 11,-4l213 0c4,0 7,1 11,4 3,3 5,6 5,11l0 26c0,5 -2,8 -5,11 -3,3 -7,4 -11,4l-213 0c-5,0 -8,-1 -11,-4 -3,-3 -4,-6 -4,-11l0 -26z"/>
   <path id="22" class="fil7 str0" d="M10409 15896c2,-4 5,-7 9,-10 4,-3 8,-4 12,-4l30 0c4,0 8,1 12,4 4,3 7,6 10,10l175 330c1,3 2,6 2,7 0,5 -3,8 -8,8l-39 0c-6,0 -11,-3 -15,-10l-40 -75 -165 0c-6,0 -8,-3 -8,-8 0,-1 1,-3 2,-7l14 -26c4,-7 9,-10 15,-10l116 0 -86 -167 -149 292c-1,3 -3,5 -6,7 -3,2 -6,3 -9,3l-36 0c-6,0 -8,-3 -8,-8 0,-1 1,-3 2,-7l172 -330z"/>
   <path id="23" class="fil7 str0" d="M10753 16148c0,-4 1,-7 4,-10 3,-3 6,-4 10,-4l28 0c8,0 12,4 14,12 3,12 9,22 18,30 9,8 20,12 32,12l146 0c14,0 26,-5 36,-16 10,-10 14,-23 14,-37 0,-14 -5,-26 -14,-36 -10,-10 -21,-15 -36,-15l-140 0c-14,0 -27,-3 -39,-8 -12,-5 -23,-12 -32,-21 -9,-9 -17,-20 -22,-32 -5,-12 -8,-25 -8,-39 0,-14 3,-27 8,-39 5,-12 13,-23 22,-32 9,-9 20,-17 32,-22 12,-5 25,-8 39,-8l138 0c12,0 24,2 36,7 12,5 22,11 30,19 9,8 16,17 22,28 6,11 10,22 11,35 0,10 -5,14 -14,14l-27 0c-8,0 -13,-4 -14,-12 -2,-11 -8,-20 -16,-27 -8,-7 -18,-11 -30,-11l-137 0c-13,0 -24,5 -33,14 -9,9 -14,20 -14,33 0,13 5,24 14,34 9,9 20,14 33,14l140 0c15,0 29,3 41,8 13,5 24,13 34,22 10,9 17,20 23,33 6,13 8,27 8,41 0,15 -3,29 -8,41 -6,13 -13,24 -23,34 -10,10 -21,17 -34,23 -13,6 -27,8 -41,8l-146 0c-14,0 -26,-2 -39,-7 -12,-5 -23,-11 -32,-20 -9,-8 -17,-18 -23,-30 -6,-11 -10,-23 -11,-36z"/>
   <path id="24" class="fil7 str0" d="M11245 15896c0,-4 1,-7 4,-10 3,-3 6,-4 10,-4l32 0c4,0 7,1 10,4 3,3 4,6 4,10l0 330c0,4 -1,7 -4,10 -3,3 -6,4 -10,4l-32 0c-4,0 -7,-1 -10,-4 -3,-3 -4,-6 -4,-10l0 -330z"/>
   <path id="25" class="fil7 str0" d="M11511 16187l257 0c4,0 7,1 10,4 3,3 4,6 4,10l0 25c0,4 -1,7 -4,10 -3,3 -6,4 -10,4l-299 0c-4,0 -7,-1 -10,-4 -3,-3 -4,-6 -4,-10l0 -330c0,-4 1,-7 4,-10 3,-3 6,-4 10,-4l296 0c4,0 7,1 10,4 3,3 4,6 4,10l0 25c0,4 -1,7 -4,10 -3,3 -6,4 -10,4l-253 0 0 252zm45 -146c0,-4 1,-7 4,-10 3,-3 6,-4 10,-4l174 0c4,0 7,1 10,4 3,3 4,6 4,10l0 25c0,5 -1,8 -4,11 -3,3 -6,4 -10,4l-174 0c-4,0 -7,-1 -10,-4 -3,-3 -4,-6 -4,-11l0 -25z"/>
   <path id="26" class="fil7 str0" d="M12120 15882c16,0 30,3 44,8 13,6 25,13 34,23 10,10 17,21 23,34 6,13 8,27 8,42 0,27 -8,50 -24,69 -16,19 -36,31 -60,37l97 130c2,3 3,6 3,8 0,4 -2,6 -7,6l-47 0c-2,0 -4,-1 -6,-2 -2,-1 -4,-3 -5,-4l-101 -135 -64 0c-4,0 -7,-1 -10,-4 -3,-3 -4,-6 -4,-10l0 -22c0,-4 1,-7 4,-10 3,-3 6,-4 10,-4l102 0c17,0 31,-5 41,-16 11,-11 16,-25 16,-41 0,-16 -6,-29 -17,-40 -11,-11 -25,-16 -41,-16l-161 0 0 291c0,4 -1,7 -4,10 -3,3 -6,4 -10,4l-30 0c-4,0 -7,-1 -10,-4 -3,-3 -4,-6 -4,-10l0 -330c0,-4 1,-7 4,-10 3,-3 6,-4 10,-4l208 0z"/>
   <path id="27" class="fil7 str0" d="M12383 16173c0,-10 5,-15 15,-15l51 0c10,0 15,5 15,15l0 51c0,3 0,6 -1,8 -1,3 -2,5 -4,8l-33 71c-2,4 -5,7 -8,10 -4,3 -8,4 -13,4l-16 0c-2,0 -3,-1 -3,-3l36 -82 -24 0c-5,0 -8,-2 -11,-5 -3,-3 -4,-7 -4,-11l0 -52z"/>
   <path id="28" class="fil7 str0" d="M12955 15820c0,-5 2,-8 5,-11 3,-3 7,-5 11,-5l343 0c5,0 8,2 11,5 3,3 4,7 4,11l0 26c0,5 -1,8 -4,11 -3,3 -6,5 -11,5l-292 0 0 363c0,4 -2,7 -5,11 -3,3 -7,5 -11,5l-36 0c-4,0 -7,-2 -11,-5 -3,-3 -5,-7 -5,-11l0 -406zm113 201c0,-5 2,-8 5,-11 3,-3 7,-4 11,-4l202 0c5,0 8,1 11,4 3,3 5,6 5,11l0 25c0,5 -2,8 -5,11 -3,3 -7,5 -11,5l-202 0c-5,0 -8,-2 -11,-5 -3,-3 -5,-7 -5,-11l0 -25z"/>
   <path id="29" class="fil7 str0" d="M13508 15896c2,-4 5,-7 9,-10 4,-3 8,-4 12,-4l30 0c4,0 8,1 12,4 4,3 7,6 10,10l175 330c1,3 2,6 2,7 0,5 -3,8 -8,8l-39 0c-6,0 -11,-3 -15,-10l-40 -75 -165 0c-6,0 -8,-3 -8,-8 0,-1 1,-3 2,-7l14 -26c4,-7 9,-10 15,-10l116 0 -86 -167 -149 292c-1,3 -3,5 -6,7 -3,2 -6,3 -9,3l-36 0c-6,0 -8,-3 -8,-8 0,-1 1,-3 2,-7l172 -330z"/>
   <path id="30" class="fil7 str0" d="M13851 16148c0,-4 1,-7 4,-10 3,-3 6,-4 10,-4l28 0c8,0 12,4 14,12 3,12 9,22 18,30 9,8 20,12 32,12l146 0c14,0 26,-5 36,-16 10,-10 14,-23 14,-37 0,-14 -5,-26 -14,-36 -10,-10 -21,-15 -36,-15l-140 0c-14,0 -27,-3 -39,-8 -12,-5 -23,-12 -32,-21 -9,-9 -17,-20 -22,-32 -5,-12 -8,-25 -8,-39 0,-14 3,-27 8,-39 5,-12 13,-23 22,-32 9,-9 20,-17 32,-22 12,-5 25,-8 39,-8l138 0c12,0 24,2 36,7 12,5 22,11 30,19 9,8 16,17 22,28 6,11 10,22 11,35 0,10 -5,14 -14,14l-27 0c-8,0 -13,-4 -14,-12 -2,-11 -8,-20 -16,-27 -8,-7 -18,-11 -30,-11l-137 0c-13,0 -24,5 -33,14 -9,9 -14,20 -14,33 0,13 5,24 14,34 9,9 20,14 33,14l140 0c15,0 29,3 41,8 13,5 24,13 34,22 10,9 17,20 23,33 6,13 8,27 8,41 0,15 -3,29 -8,41 -6,13 -13,24 -23,34 -10,10 -21,17 -34,23 -13,6 -27,8 -41,8l-146 0c-14,0 -26,-2 -39,-7 -12,-5 -23,-11 -32,-20 -9,-8 -17,-18 -23,-30 -6,-11 -10,-23 -11,-36z"/>
   <path id="31" class="fil7 str0" d="M14289 15896c0,-4 1,-7 4,-10 3,-3 6,-4 10,-4l336 0c5,0 8,1 11,4 3,3 4,6 4,10l0 25c0,4 -1,7 -4,10 -3,3 -6,4 -11,4l-336 0c-4,0 -7,-1 -10,-4 -3,-3 -4,-6 -4,-10l0 -25zm152 96c0,-10 5,-14 14,-14l32 0c10,0 14,5 14,14l0 235c0,4 -1,7 -4,10 -3,3 -6,4 -11,4l-32 0c-5,0 -8,-1 -11,-4 -3,-3 -4,-6 -4,-10l0 -235z"/>
   <path id="32" class="fil7 str0" d="M14802 16187l257 0c4,0 7,1 10,4 3,3 4,6 4,10l0 25c0,4 -1,7 -4,10 -3,3 -6,4 -10,4l-299 0c-4,0 -7,-1 -10,-4 -3,-3 -4,-6 -4,-10l0 -330c0,-4 1,-7 4,-10 3,-3 6,-4 10,-4l296 0c4,0 7,1 10,4 3,3 4,6 4,10l0 25c0,4 -1,7 -4,10 -3,3 -6,4 -10,4l-253 0 0 252zm45 -146c0,-4 1,-7 4,-10 3,-3 6,-4 10,-4l174 0c4,0 7,1 10,4 3,3 4,6 4,10l0 25c0,5 -1,8 -4,11 -3,3 -6,4 -10,4l-174 0c-4,0 -7,-1 -10,-4 -3,-3 -4,-6 -4,-11l0 -25z"/>
   <path id="33" class="fil7 str0" d="M15411 15882c16,0 30,3 44,8 13,6 25,13 34,23 10,10 17,21 23,34 6,13 8,27 8,42 0,27 -8,50 -24,69 -16,19 -36,31 -60,37l97 130c2,3 3,6 3,8 0,4 -2,6 -7,6l-47 0c-2,0 -4,-1 -6,-2 -2,-1 -4,-3 -5,-4l-101 -135 -64 0c-4,0 -7,-1 -10,-4 -3,-3 -4,-6 -4,-10l0 -22c0,-4 1,-7 4,-10 3,-3 6,-4 10,-4l102 0c17,0 31,-5 41,-16 11,-11 16,-25 16,-41 0,-16 -6,-29 -17,-40 -11,-11 -25,-16 -41,-16l-161 0 0 291c0,4 -1,7 -4,10 -3,3 -6,4 -10,4l-30 0c-4,0 -7,-1 -10,-4 -3,-3 -4,-6 -4,-10l0 -330c0,-4 1,-7 4,-10 3,-3 6,-4 10,-4l208 0z"/>
   <path id="34" class="fil7 str0" d="M15674 16173c0,-10 5,-15 15,-15l51 0c10,0 15,5 15,15l0 51c0,3 0,6 -1,8 -1,3 -2,5 -4,8l-33 71c-2,4 -5,7 -8,10 -4,3 -8,4 -13,4l-16 0c-2,0 -3,-1 -3,-3l36 -82 -24 0c-5,0 -8,-2 -11,-5 -3,-3 -4,-7 -4,-11l0 -52z"/>
   <path id="35" class="fil7 str0" d="M16281 16115c6,0 9,3 9,8 2,16 9,30 21,42 12,12 27,17 45,17l162 0c19,0 35,-7 47,-20 12,-14 19,-29 19,-47 0,-18 -6,-34 -19,-47 -12,-13 -28,-19 -47,-19l-154 0c-17,0 -33,-3 -47,-10 -15,-6 -28,-15 -39,-26 -11,-11 -20,-24 -26,-39 -6,-15 -9,-31 -9,-48 0,-17 3,-33 9,-47 6,-15 15,-28 26,-39 11,-11 24,-20 39,-26 15,-6 30,-10 47,-10l151 0c14,0 28,3 43,8 14,6 27,13 39,23 12,10 21,22 28,35 7,14 11,28 11,44 0,6 -3,8 -9,8l-36 0c-6,0 -9,-3 -9,-8 -2,-15 -9,-27 -19,-37 -10,-10 -24,-15 -41,-15l-160 0c-18,0 -33,6 -44,18 -11,12 -17,26 -17,43 0,16 6,31 17,43 11,12 26,19 45,19l156 0c18,0 34,3 50,10 16,6 29,16 41,27 12,12 21,25 28,41 7,16 10,32 10,50 0,18 -3,35 -10,50 -7,16 -16,29 -28,40 -12,11 -25,20 -41,27 -16,7 -32,10 -50,10l-159 0c-15,0 -30,-3 -45,-9 -15,-6 -29,-14 -41,-25 -12,-10 -22,-23 -30,-37 -8,-14 -11,-30 -11,-46 0,-6 3,-9 9,-9l41 0z"/>
   <path id="36" class="fil7 str0" d="M16815 15888c0,-4 2,-6 6,-6l48 0c4,0 7,1 8,4l150 144 150 -144c3,-3 6,-4 9,-4l45 0c4,0 6,1 6,4 0,4 -2,8 -7,13l-187 181c-1,1 -3,2 -4,3 -3,2 -7,3 -12,3 -5,0 -8,-1 -12,-3 -2,-1 -3,-2 -4,-3l-141 -135 0 281c0,4 -1,7 -4,10 -3,3 -6,4 -10,4l-27 0c-4,0 -7,-1 -10,-4 -3,-3 -4,-6 -4,-10l0 -339zm421 339c0,4 -1,7 -4,10 -3,3 -6,4 -10,4l-28 0c-4,0 -7,-1 -10,-4 -3,-3 -4,-6 -4,-10l0 -217c0,-2 1,-5 3,-8 2,-3 4,-6 6,-9l38 -38c3,-3 5,-4 8,-4 2,0 3,1 3,4l0 272z"/>
   <path id="37" class="fil7 str0" d="M17512 15896c2,-4 5,-7 9,-10 4,-3 8,-4 12,-4l30 0c4,0 8,1 12,4 4,3 7,6 10,10l175 330c1,3 2,6 2,7 0,5 -3,8 -8,8l-39 0c-6,0 -11,-3 -15,-10l-40 -75 -165 0c-6,0 -8,-3 -8,-8 0,-1 1,-3 2,-7l14 -26c4,-7 9,-10 15,-10l116 0 -86 -167 -149 292c-1,3 -3,5 -6,7 -3,2 -6,3 -9,3l-36 0c-6,0 -8,-3 -8,-8 0,-1 1,-3 2,-7l172 -330z"/>
   <path id="38" class="fil7 str0" d="M18088 15882c16,0 30,3 44,8 13,6 25,13 34,23 10,10 17,21 23,34 6,13 8,27 8,42 0,27 -8,50 -24,69 -16,19 -36,31 -60,37l97 130c2,3 3,6 3,8 0,4 -2,6 -7,6l-47 0c-2,0 -4,-1 -6,-2 -2,-1 -4,-3 -5,-4l-101 -135 -64 0c-4,0 -7,-1 -10,-4 -3,-3 -4,-6 -4,-10l0 -22c0,-4 1,-7 4,-10 3,-3 6,-4 10,-4l102 0c17,0 31,-5 41,-16 11,-11 16,-25 16,-41 0,-16 -6,-29 -17,-40 -11,-11 -25,-16 -41,-16l-161 0 0 291c0,4 -1,7 -4,10 -3,3 -6,4 -10,4l-30 0c-4,0 -7,-1 -10,-4 -3,-3 -4,-6 -4,-10l0 -330c0,-4 1,-7 4,-10 3,-3 6,-4 10,-4l208 0z"/>
   <path id="39" class="fil7 str0" d="M18269 15896c0,-4 1,-7 4,-10 3,-3 6,-4 10,-4l336 0c5,0 8,1 11,4 3,3 4,6 4,10l0 25c0,4 -1,7 -4,10 -3,3 -6,4 -11,4l-336 0c-4,0 -7,-1 -10,-4 -3,-3 -4,-6 -4,-10l0 -25zm152 96c0,-10 5,-14 14,-14l32 0c10,0 14,5 14,14l0 235c0,4 -1,7 -4,10 -3,3 -6,4 -11,4l-32 0c-5,0 -8,-1 -11,-4 -3,-3 -4,-6 -4,-10l0 -235z"/>
   <path id="40" class="fil7 str0" d="M18782 16187l257 0c4,0 7,1 10,4 3,3 4,6 4,10l0 25c0,4 -1,7 -4,10 -3,3 -6,4 -10,4l-299 0c-4,0 -7,-1 -10,-4 -3,-3 -4,-6 -4,-10l0 -330c0,-4 1,-7 4,-10 3,-3 6,-4 10,-4l296 0c4,0 7,1 10,4 3,3 4,6 4,10l0 25c0,4 -1,7 -4,10 -3,3 -6,4 -10,4l-253 0 0 252zm45 -146c0,-4 1,-7 4,-10 3,-3 6,-4 10,-4l174 0c4,0 7,1 10,4 3,3 4,6 4,10l0 25c0,5 -1,8 -4,11 -3,3 -6,4 -10,4l-174 0c-4,0 -7,-1 -10,-4 -3,-3 -4,-6 -4,-11l0 -25z"/>
   <path id="41" class="fil7 str0" d="M19390 15882c16,0 30,3 44,8 13,6 25,13 34,23 10,10 17,21 23,34 6,13 8,27 8,42 0,27 -8,50 -24,69 -16,19 -36,31 -60,37l97 130c2,3 3,6 3,8 0,4 -2,6 -7,6l-47 0c-2,0 -4,-1 -6,-2 -2,-1 -4,-3 -5,-4l-101 -135 -64 0c-4,0 -7,-1 -10,-4 -3,-3 -4,-6 -4,-10l0 -22c0,-4 1,-7 4,-10 3,-3 6,-4 10,-4l102 0c17,0 31,-5 41,-16 11,-11 16,-25 16,-41 0,-16 -6,-29 -17,-40 -11,-11 -25,-16 -41,-16l-161 0 0 291c0,4 -1,7 -4,10 -3,3 -6,4 -10,4l-30 0c-4,0 -7,-1 -10,-4 -3,-3 -4,-6 -4,-10l0 -330c0,-4 1,-7 4,-10 3,-3 6,-4 10,-4l208 0z"/>
  </g>
 </g>
</svg>
